Newfancy-Regular.ufo
<glyph name="less" format="2">
  <advance width="353"/>
  <unicode hex="003C"/>
  <outline>
    <contour>
      <point x="471" y="612" type="line"/>
      <point x="430" y="468" type="line"/>
      <point x="235" y="363" type="line"/>
      <point x="379" y="242" type="line"/>
      <point x="354" y="107" type="line"/>
      <point x="102" y="322" type="line"/>
      <point x="116" y="423" type="line"/>
    </contour>
  </outline>
</glyph>
<glyph name="asciicircum" format="2">
  <advance width="486"/>
  <unicode hex="005E"/>
  <outline>
    <contour>
      <point x="104" y="339" type="line"/>
      <point x="104" y="493" type="line"/>
      <point x="253" y="643" type="line"/>
      <point x="369" y="643" type="line"/>
      <point x="517" y="496" type="line"/>
      <point x="517" y="342" type="line"/>
      <point x="312" y="547" type="line"/>
    </contour>
  </outline>
</glyph>
<glyph name="sterling" format="2">
  <advance width="450"/>
  <unicode hex="00A3"/>
  <outline>
    <contour>
      <point x="87" y="320" type="line"/>
      <point x="113" y="440" type="line"/>
      <point x="171" y="440" type="line"/>
      <point x="192" y="528" type="line"/>
      <point x="174" y="575" type="line"/>
      <point x="110" y="575" type="line"/>
      <point x="142" y="693" type="line"/>
      <point x="257" y="693" type="line"/>
      <point x="318" y="568" type="line"/>
      <point x="290" y="440" type="line"/>
      <point x="395" y="440" type="line"/>
      <point x="369" y="320" type="line"/>
      <point x="264" y="320" type="line"/>
      <point x="162" y="177" type="line"/>
      <point x="167" y="137" type="line"/>
      <point x="236" y="137" type="line"/>
      <point x="331" y="258" type="line"/>
      <point x="463" y="258" type="line"/>
      <point x="438" y="139" type="line"/>
      <point x="374" y="139" type="line"/>
      <point x="350" y="107"/>
      <point x="303" y="48"/>
      <point x="279" y="17" type="qcurve"/>
      <point x="83" y="17" type="line"/>
      <point x="24" y="152" type="line"/>
      <point x="145" y="320" type="line"/>
    </contour>
  </outline>
</glyph>
<glyph name="copyright" format="2">
  <advance width="450"/>
  <unicode hex="00A9"/>
  <outline>
    <contour>
      <point x="108" y="429" type="qcurve" smooth="yes"/>
      <point x="108" y="473"/>
      <point x="142" y="551"/>
      <point x="200" y="610"/>
      <point x="278" y="644"/>
      <point x="322" y="644" type="qcurve" smooth="yes"/>
      <point x="366" y="644"/>
      <point x="444" y="610"/>
      <point x="503" y="551"/>
      <point x="537" y="473"/>
      <point x="537" y="429" type="qcurve" smooth="yes"/>
      <point x="537" y="384"/>
      <point x="503" y="306"/>
      <point x="444" y="248"/>
      <point x="366" y="214"/>
      <point x="322" y="214" type="qcurve" smooth="yes"/>
      <point x="278" y="214"/>
      <point x="200" y="248"/>
      <point x="142" y="306"/>
      <point x="108" y="384"/>
    </contour>
    <contour>
      <point x="154" y="429" type="qcurve" smooth="yes"/>
      <point x="154" y="394"/>
      <point x="180" y="332"/>
      <point x="226" y="286"/>
      <point x="287" y="260"/>
      <point x="322" y="260" type="qcurve" smooth="yes"/>
      <point x="357" y="260"/>
      <point x="418" y="286"/>
      <point x="464" y="332"/>
      <point x="491" y="394"/>
      <point x="491" y="429" type="qcurve" smooth="yes"/>
      <point x="491" y="464"/>
      <point x="464" y="525"/>
      <point x="418" y="571"/>
      <point x="357" y="598"/>
      <point x="322" y="598" type="qcurve" smooth="yes"/>
      <point x="287" y="598"/>
      <point x="226" y="571"/>
      <point x="180" y="525"/>
      <point x="154" y="464"/>
    </contour>
    <contour>
      <point x="298" y="570" type="line"/>
      <point x="392" y="570" type="line"/>
      <point x="415" y="520" type="line"/>
      <point x="407" y="482" type="line"/>
      <point x="361" y="482" type="line"/>
      <point x="366" y="506" type="line"/>
      <point x="360" y="524" type="line"/>
      <point x="311" y="524" type="line"/>
      <point x="297" y="506" type="line"/>
      <point x="268" y="372" type="line"/>
      <point x="275" y="353" type="line"/>
      <point x="323" y="353" type="line"/>
      <point x="338" y="372" type="line"/>
      <point x="342" y="395" type="line"/>
      <point x="388" y="395" type="line"/>
      <point x="381" y="358" type="line"/>
      <point x="336" y="305" type="line"/>
      <point x="243" y="305" type="line"/>
      <point x="220" y="358" type="line"/>
      <point x="253" y="520" type="line"/>
    </contour>
  </outline>
</glyph>
<glyph name="registered" format="2">
  <advance width="470"/>
  <unicode hex="00AE"/>
  <outline>
    <contour>
      <point x="115" y="464" type="qcurve" smooth="yes"/>
      <point x="115" y="508"/>
      <point x="148" y="586"/>
      <point x="206" y="644"/>
      <point x="284" y="678"/>
      <point x="328" y="678" type="qcurve" smooth="yes"/>
      <point x="372" y="678"/>
      <point x="450" y="644"/>
      <point x="508" y="586"/>
      <point x="542" y="508"/>
      <point x="542" y="464" type="qcurve" smooth="yes"/>
      <point x="542" y="420"/>
      <point x="508" y="342"/>
      <point x="450" y="284"/>
      <point x="372" y="251"/>
      <point x="328" y="251" type="qcurve" smooth="yes"/>
      <point x="284" y="251"/>
      <point x="206" y="284"/>
      <point x="148" y="342"/>
      <point x="115" y="420"/>
    </contour>
    <contour>
      <point x="181" y="464" type="qcurve" smooth="yes"/>
      <point x="181" y="433"/>
      <point x="204" y="380"/>
      <point x="244" y="340"/>
      <point x="297" y="317"/>
      <point x="328" y="317" type="qcurve" smooth="yes"/>
      <point x="359" y="317"/>
      <point x="413" y="340"/>
      <point x="453" y="380"/>
      <point x="476" y="433"/>
      <point x="476" y="464" type="qcurve" smooth="yes"/>
      <point x="476" y="495"/>
      <point x="453" y="549"/>
      <point x="413" y="589"/>
      <point x="359" y="612"/>
      <point x="328" y="612" type="qcurve" smooth="yes"/>
      <point x="297" y="612"/>
      <point x="244" y="589"/>
      <point x="204" y="549"/>
      <point x="181" y="495"/>
    </contour>
    <contour>
      <point x="277" y="584" type="line"/>
      <point x="390" y="584" type="line"/>
      <point x="412" y="539" type="line"/>
      <point x="402" y="493" type="line"/>
      <point x="383" y="473" type="line"/>
      <point x="385" y="468"/>
      <point x="392" y="458"/>
      <point x="394" y="453" type="qcurve"/>
      <point x="371" y="348" type="line"/>
      <point x="330" y="348" type="line"/>
      <point x="350" y="439" type="line"/>
      <point x="348" y="443"/>
      <point x="344" y="450"/>
      <point x="342" y="453" type="qcurve"/>
      <point x="291" y="453" type="line"/>
      <point x="281" y="406" type="line"/>
      <point x="287" y="390" type="line"/>
      <point x="321" y="390" type="line"/>
      <point x="311" y="348" type="line"/>
      <point x="258" y="348" type="line"/>
      <point x="237" y="395" type="line"/>
    </contour>
    <contour>
      <point x="364" y="506" type="line"/>
      <point x="368" y="527" type="line"/>
      <point x="364" y="535"/>
      <point x="362" y="543" type="qcurve"/>
      <point x="310" y="543" type="line"/>
      <point x="299" y="494" type="line"/>
      <point x="351" y="494" type="line"/>
    </contour>
  </outline>
</glyph>
<glyph name="degree" format="2">
  <advance width="390"/>
  <unicode hex="00B0"/>
  <outline>
    <contour>
      <point x="135" y="488" type="qcurve" smooth="yes"/>
      <point x="135" y="522"/>
      <point x="161" y="582"/>
      <point x="206" y="627"/>
      <point x="266" y="653"/>
      <point x="300" y="653" type="qcurve" smooth="yes"/>
      <point x="334" y="653"/>
      <point x="394" y="627"/>
      <point x="439" y="582"/>
      <point x="465" y="522"/>
      <point x="465" y="488" type="qcurve" smooth="yes"/>
      <point x="465" y="454"/>
      <point x="439" y="394"/>
      <point x="394" y="349"/>
      <point x="334" y="323"/>
      <point x="300" y="323" type="qcurve" smooth="yes"/>
      <point x="266" y="323"/>
      <point x="206" y="349"/>
      <point x="161" y="394"/>
      <point x="135" y="454"/>
    </contour>
    <contour>
      <point x="201" y="488" type="qcurve" smooth="yes"/>
      <point x="201" y="446"/>
      <point x="258" y="389"/>
      <point x="300" y="389" type="qcurve" smooth="yes"/>
      <point x="342" y="389"/>
      <point x="399" y="446"/>
      <point x="399" y="488" type="qcurve" smooth="yes"/>
      <point x="399" y="530"/>
      <point x="342" y="587"/>
      <point x="300" y="587" type="qcurve" smooth="yes"/>
      <point x="258" y="587"/>
      <point x="201" y="530"/>
    </contour>
  </outline>
</glyph>
<glyph name="acute" format="2">
  <advance width="453"/>
  <unicode hex="00B4"/>
  <outline>
    <contour>
      <point x="291" y="534" type="line"/>
      <point x="350" y="664" type="line"/>
      <point x="461" y="664" type="line"/>
      <point x="392" y="534" type="line"/>
    </contour>
  </outline>
</glyph>
<glyph name="Atilde" format="2">
  <advance width="460"/>
  <unicode hex="00C3"/>
  <outline>
    <contour>
      <point x="185" y="765" type="line"/>
      <point x="194" y="785"/>
      <point x="218" y="825"/>
      <point x="248" y="856"/>
      <point x="286" y="876"/>
      <point x="309" y="876" type="qcurve" smooth="yes"/>
      <point x="331" y="876"/>
      <point x="374" y="854"/>
      <point x="391" y="842" type="qcurve" smooth="yes"/>
      <point x="409" y="830"/>
      <point x="422" y="827"/>
      <point x="425" y="827" type="qcurve" smooth="yes"/>
      <point x="436" y="827"/>
      <point x="451" y="848"/>
      <point x="467" y="876" type="qcurve"/>
      <point x="551" y="843" type="line"/>
      <point x="541" y="823"/>
      <point x="518" y="784"/>
      <point x="488" y="752"/>
      <point x="450" y="732"/>
      <point x="426" y="732" type="qcurve" smooth="yes"/>
      <point x="404" y="732"/>
      <point x="360" y="755"/>
      <point x="343" y="766" type="qcurve" smooth="yes"/>
      <point x="332" y="773"/>
      <point x="316" y="784"/>
      <point x="303" y="784"/>
      <point x="291" y="772"/>
      <point x="284" y="757" type="qcurve" smooth="yes"/>
      <point x="282" y="752"/>
      <point x="273" y="733"/>
      <point x="271" y="729" type="qcurve"/>
    </contour>
    <contour>
      <point x="254" y="691" type="line"/>
      <point x="490" y="691" type="line"/>
      <point x="553" y="564" type="line"/>
      <point x="437" y="17" type="line"/>
      <point x="319" y="17" type="line"/>
      <point x="382" y="314" type="line"/>
      <point x="205" y="314" type="line"/>
      <point x="178" y="186" type="line"/>
      <point x="194" y="136" type="line"/>
      <point x="292" y="136" type="line"/>
      <point x="267" y="17" type="line"/>
      <point x="111" y="17" type="line"/>
      <point x="53" y="152" type="line"/>
      <point x="140" y="564" type="line"/>
    </contour>
    <contour>
      <point x="408" y="433" type="line"/>
      <point x="428" y="528" type="line"/>
      <point x="407" y="573" type="line"/>
      <point x="288" y="573" type="line"/>
      <point x="279" y="564"/>
      <point x="259" y="537"/>
      <point x="251" y="528" type="qcurve"/>
      <point x="231" y="433" type="line"/>
    </contour>
  </outline>
</glyph>
<glyph name="Aring" format="2">
  <advance width="460"/>
  <unicode hex="00C5"/>
  <outline>
    <contour>
      <point x="403" y="966" type="qcurve" smooth="yes"/>
      <point x="428" y="966"/>
      <point x="471" y="947"/>
      <point x="503" y="916"/>
      <point x="522" y="873"/>
      <point x="522" y="849" type="qcurve" smooth="yes"/>
      <point x="522" y="825"/>
      <point x="503" y="782"/>
      <point x="471" y="751"/>
      <point x="428" y="732"/>
      <point x="403" y="732" type="qcurve" smooth="yes"/>
      <point x="378" y="732"/>
      <point x="335" y="751"/>
      <point x="303" y="782"/>
      <point x="285" y="825"/>
      <point x="285" y="849" type="qcurve" smooth="yes"/>
      <point x="285" y="873"/>
      <point x="303" y="916"/>
      <point x="335" y="947"/>
      <point x="378" y="966"/>
    </contour>
    <contour>
      <point x="403" y="813" type="qcurve" smooth="yes"/>
      <point x="419" y="813"/>
      <point x="440" y="834"/>
      <point x="440" y="849" type="qcurve" smooth="yes"/>
      <point x="440" y="864"/>
      <point x="419" y="885"/>
      <point x="403" y="885" type="qcurve" smooth="yes"/>
      <point x="389" y="885"/>
      <point x="367" y="864"/>
      <point x="367" y="849" type="qcurve" smooth="yes"/>
      <point x="367" y="834"/>
      <point x="389" y="813"/>
    </contour>
    <contour>
      <point x="254" y="691" type="line"/>
      <point x="490" y="691" type="line"/>
      <point x="553" y="564" type="line"/>
      <point x="437" y="17" type="line"/>
      <point x="319" y="17" type="line"/>
      <point x="382" y="314" type="line"/>
      <point x="205" y="314" type="line"/>
      <point x="178" y="186" type="line"/>
      <point x="194" y="136" type="line"/>
      <point x="292" y="136" type="line"/>
      <point x="267" y="17" type="line"/>
      <point x="111" y="17" type="line"/>
      <point x="53" y="152" type="line"/>
      <point x="140" y="564" type="line"/>
    </contour>
    <contour>
      <point x="408" y="433" type="line"/>
      <point x="428" y="528" type="line"/>
      <point x="407" y="573" type="line"/>
      <point x="288" y="573" type="line"/>
      <point x="279" y="564"/>
      <point x="259" y="537"/>
      <point x="251" y="528" type="qcurve"/>
      <point x="231" y="433" type="line"/>
    </contour>
  </outline>
</glyph>
<glyph name="Ecircumflex" format="2">
  <advance width="477"/>
  <unicode hex="00CA"/>
  <outline>
    <contour>
      <point x="381" y="258" type="line"/>
      <point x="516" y="258" type="line"/>
      <point x="492" y="142" type="line"/>
      <point x="428" y="142" type="line"/>
      <point x="331" y="17" type="line"/>
      <point x="120" y="17" type="line"/>
      <point x="58" y="152" type="line"/>
      <point x="173" y="693" type="line"/>
      <point x="561" y="693" type="line"/>
      <point x="536" y="575" type="line"/>
      <point x="268" y="575" type="line"/>
      <point x="238" y="434" type="line"/>
      <point x="417" y="434" type="line"/>
      <point x="392" y="316" type="line"/>
      <point x="213" y="316" type="line"/>
      <point x="185" y="186" type="line"/>
      <point x="202" y="137" type="line"/>
      <point x="287" y="137" type="line"/>
    </contour>
    <contour>
      <point x="190" y="730" type="line"/>
      <point x="280" y="865" type="line"/>
      <point x="394" y="865" type="line"/>
      <point x="304" y="730" type="line"/>
    </contour>
    <contour>
      <point x="416" y="730" type="line"/>
      <point x="357" y="865" type="line"/>
      <point x="472" y="865" type="line"/>
      <point x="530" y="730" type="line"/>
    </contour>
  </outline>
</glyph>
<glyph name="Iacute" format="2">
  <advance width="278"/>
  <unicode hex="00CD"/>
  <outline>
    <contour>
      <point x="182" y="186" type="line"/>
      <point x="200" y="137" type="line"/>
      <point x="298" y="137" type="line"/>
      <point x="272" y="17" type="line"/>
      <point x="116" y="17" type="line"/>
      <point x="57" y="152" type="line"/>
      <point x="172" y="693" type="line"/>
      <point x="290" y="693" type="line"/>
    </contour>
    <contour>
      <point x="196" y="732" type="line"/>
      <point x="255" y="862" type="line"/>
      <point x="366" y="862" type="line"/>
      <point x="297" y="732" type="line"/>
    </contour>
  </outline>
</glyph>
<glyph name="Uacute" format="2">
  <advance width="457"/>
  <unicode hex="00DA"/>
  <outline>
    <contour>
      <point x="351" y="186" type="line"/>
      <point x="459" y="693" type="line"/>
      <point x="577" y="693" type="line"/>
      <point x="462" y="152" type="line"/>
      <point x="345" y="17" type="line"/>
      <point x="116" y="17" type="line"/>
      <point x="57" y="152" type="line"/>
      <point x="172" y="693" type="line"/>
      <point x="291" y="693" type="line"/>
      <point x="183" y="186" type="line"/>
      <point x="200" y="137" type="line"/>
      <point x="313" y="137" type="line"/>
    </contour>
    <contour>
      <point x="320" y="732" type="line"/>
      <point x="379" y="862" type="line"/>
      <point x="490" y="862" type="line"/>
      <point x="421" y="732" type="line"/>
    </contour>
  </outline>
</glyph>
<glyph name="ocircumflex" format="2">
  <advance width="472"/>
  <unicode hex="00F4"/>
  <outline>
    <contour>
      <point x="328" y="137" type="line"/>
      <point x="365" y="186" type="line"/>
      <point x="438" y="528" type="line"/>
      <point x="421" y="575" type="line"/>
      <point x="295" y="575" type="line"/>
      <point x="259" y="528" type="line"/>
      <point x="186" y="186" type="line"/>
      <point x="202" y="137" type="line"/>
    </contour>
    <contour>
      <point x="146" y="564" type="line"/>
      <point x="263" y="693" type="line"/>
      <point x="504" y="693" type="line"/>
      <point x="564" y="564" type="line"/>
      <point x="477" y="152" type="line"/>
      <point x="360" y="17" type="line"/>
      <point x="119" y="17" type="line"/>
      <point x="59" y="152" type="line"/>
    </contour>
    <contour>
      <point x="326" y="732" type="line"/>
      <point x="212" y="732" type="line"/>
      <point x="271" y="867" type="line"/>
      <point x="385" y="867" type="line"/>
    </contour>
    <contour>
      <point x="589" y="732" type="line"/>
      <point x="475" y="732" type="line"/>
      <point x="416" y="867" type="line"/>
      <point x="531" y="867" type="line"/>
    </contour>
  </outline>
</glyph>
<glyph name="ugrave" format="2">
  <advance width="457"/>
  <unicode hex="00F9"/>
  <outline>
    <contour>
      <point x="351" y="186" type="line"/>
      <point x="459" y="693" type="line"/>
      <point x="577" y="693" type="line"/>
      <point x="462" y="152" type="line"/>
      <point x="345" y="17" type="line"/>
      <point x="116" y="17" type="line"/>
      <point x="57" y="152" type="line"/>
      <point x="172" y="693" type="line"/>
      <point x="291" y="693" type="line"/>
      <point x="183" y="186" type="line"/>
      <point x="200" y="137" type="line"/>
      <point x="313" y="137" type="line"/>
    </contour>
    <contour>
      <point x="345" y="732" type="line"/>
      <point x="276" y="862" type="line"/>
      <point x="387" y="862" type="line"/>
      <point x="446" y="732" type="line"/>
    </contour>
  </outline>
</glyph>
<glyph name="ucircumflex" format="2">
  <advance width="457"/>
  <unicode hex="00FB"/>
  <outline>
    <contour>
      <point x="351" y="186" type="line"/>
      <point x="459" y="693" type="line"/>
      <point x="577" y="693" type="line"/>
      <point x="462" y="152" type="line"/>
      <point x="345" y="17" type="line"/>
      <point x="116" y="17" type="line"/>
      <point x="57" y="152" type="line"/>
      <point x="172" y="693" type="line"/>
      <point x="291" y="693" type="line"/>
      <point x="183" y="186" type="line"/>
      <point x="200" y="137" type="line"/>
      <point x="313" y="137" type="line"/>
    </contour>
    <contour>
      <point x="165" y="732" type="line"/>
      <point x="224" y="867" type="line"/>
      <point x="338" y="867" type="line"/>
      <point x="279" y="732" type="line"/>
    </contour>
    <contour>
      <point x="428" y="732" type="line"/>
      <point x="369" y="867" type="line"/>
      <point x="484" y="867" type="line"/>
      <point x="542" y="732" type="line"/>
    </contour>
  </outline>
</glyph>
<glyph name="udieresis" format="2">
  <advance width="457"/>
  <unicode hex="00FC"/>
  <outline>
    <contour>
      <point x="351" y="186" type="line"/>
      <point x="459" y="693" type="line"/>
      <point x="577" y="693" type="line"/>
      <point x="462" y="152" type="line"/>
      <point x="345" y="17" type="line"/>
      <point x="116" y="17" type="line"/>
      <point x="57" y="152" type="line"/>
      <point x="172" y="693" type="line"/>
      <point x="291" y="693" type="line"/>
      <point x="183" y="186" type="line"/>
      <point x="200" y="137" type="line"/>
      <point x="313" y="137" type="line"/>
    </contour>
    <contour>
      <point x="217" y="731" type="line"/>
      <point x="243" y="851" type="line"/>
      <point x="362" y="851" type="line"/>
      <point x="336" y="731" type="line"/>
    </contour>
    <contour>
      <point x="416" y="731" type="line"/>
      <point x="442" y="851" type="line"/>
      <point x="561" y="851" type="line"/>
      <point x="535" y="731" type="line"/>
    </contour>
  </outline>
</glyph>
<glyph name="Zcaron" format="2">
  <advance width="480"/>
  <unicode hex="017D"/>
  <outline>
    <contour>
      <point x="300" y="731" type="line"/>
      <point x="217" y="858" type="line"/>
      <point x="262" y="900" type="line"/>
      <point x="343" y="832" type="line"/>
      <point x="454" y="890" type="line"/>
      <point x="499" y="855" type="line"/>
      <point x="405" y="731" type="line"/>
    </contour>
    <contour>
      <point x="375" y="258" type="line"/>
      <point x="509" y="258" type="line"/>
      <point x="484" y="139" type="line"/>
      <point x="420" y="139" type="line"/>
      <point x="396" y="107"/>
      <point x="348" y="48"/>
      <point x="324" y="17" type="qcurve"/>
      <point x="27" y="17" type="line"/>
      <point x="52" y="133" type="line"/>
      <point x="399" y="575" type="line"/>
      <point x="146" y="575" type="line"/>
      <point x="171" y="694" type="line"/>
      <point x="564" y="694" type="line"/>
      <point x="540" y="579" type="line"/>
      <point x="192" y="137" type="line"/>
      <point x="280" y="137" type="line"/>
    </contour>
  </outline>
</glyph>
<glyph name="dieresiscomb" format="2">
  <advance width="683"/>
  <unicode hex="0308"/>
  <outline>
    <contour>
      <point x="357" y="533" type="line"/>
      <point x="383" y="653" type="line"/>
      <point x="502" y="653" type="line"/>
      <point x="476" y="533" type="line"/>
    </contour>
    <contour>
      <point x="556" y="533" type="line"/>
      <point x="582" y="653" type="line"/>
      <point x="701" y="653" type="line"/>
      <point x="675" y="533" type="line"/>
    </contour>
  </outline>
</glyph>
<glyph name="quoteleft" format="2">
  <advance width="239"/>
  <unicode hex="2018"/>
  <outline>
    <contour>
      <point x="45" y="526" type="line"/>
      <point x="124" y="656" type="line"/>
      <point x="211" y="656" type="line"/>
      <point x="179" y="526" type="line"/>
    </contour>
  </outline>
</glyph>
<glyph name="quoteright" format="2">
  <advance width="167"/>
  <unicode hex="2019"/>
  <outline>
    <contour>
      <point x="226" y="656" type="line"/>
      <point x="147" y="526" type="line"/>
      <point x="60" y="526" type="line"/>
      <point x="92" y="656" type="line"/>
    </contour>
  </outline>
</glyph>
<glyph name="guilsinglleft" format="2">
  <advance width="237"/>
  <unicode hex="2039"/>
  <outline>
    <contour>
      <point x="365" y="604" type="line"/>
      <point x="307" y="439" type="line"/>
      <point x="169" y="350" type="line"/>
      <point x="267" y="235" type="line"/>
      <point x="242" y="94" type="line"/>
      <point x="61" y="301" type="line"/>
      <point x="86" y="413" type="line"/>
    </contour>
  </outline>
</glyph>
<glyph name="guilsinglright" format="2">
  <advance width="244"/>
  <unicode hex="203A"/>
  <outline>
    <contour>
      <point x="14" y="94" type="line"/>
      <point x="72" y="259" type="line"/>
      <point x="210" y="348" type="line"/>
      <point x="112" y="463" type="line"/>
      <point x="137" y="604" type="line"/>
      <point x="318" y="397" type="line"/>
      <point x="293" y="285" type="line"/>
    </contour>
  </outline>
</glyph>
<glyph name="minus" format="2">
  <advance width="475"/>
  <unicode hex="2212"/>
  <outline>
    <contour>
      <point x="79" y="314" type="line"/>
      <point x="105" y="434" type="line"/>
      <point x="523" y="434" type="line"/>
      <point x="497" y="314" type="line"/>
    </contour>
  </outline>
</glyph>
<glyph name="Germandbls" format="2">
  <advance width="510"/>
  <outline>
    <contour>
      <point x="346" y="186" type="line"/>
      <point x="362" y="262" type="line"/>
      <point x="342" y="299" type="line"/>
      <point x="236" y="299" type="line"/>
      <point x="265" y="418" type="line"/>
      <point x="361" y="418" type="line"/>
      <point x="420" y="575" type="line"/>
      <point x="295" y="575" type="line"/>
      <point x="257" y="528" type="line"/>
      <point x="150" y="17" type="line"/>
      <point x="34" y="17" type="line"/>
      <point x="145" y="564" type="line"/>
      <point x="263" y="693" type="line"/>
      <point x="576" y="693" type="line"/>
      <point x="457" y="359" type="line"/>
      <point x="465" y="345"/>
      <point x="483" y="315"/>
      <point x="489" y="302" type="qcurve"/>
      <point x="457" y="152" type="line"/>
      <point x="340" y="17" type="line"/>
      <point x="183" y="17" type="line"/>
      <point x="209" y="137" type="line"/>
      <point x="308" y="137" type="line"/>
    </contour>
  </outline>
</glyph>
<glyph name=".notdef" format="2">
  <advance width="538"/>
  <outline>
    <contour>
      <point x="37" y="691" type="line"/>
      <point x="151" y="691" type="line"/>
      <point x="151" y="17" type="line"/>
      <point x="37" y="17" type="line"/>
    </contour>
    <contour>
      <point x="387" y="691" type="line"/>
      <point x="501" y="691" type="line"/>
      <point x="501" y="17" type="line"/>
      <point x="387" y="17" type="line"/>
    </contour>
    <contour>
      <point x="37" y="577" type="line"/>
      <point x="37" y="691" type="line"/>
      <point x="479" y="691" type="line"/>
      <point x="479" y="577" type="line"/>
    </contour>
    <contour>
      <point x="59" y="17" type="line"/>
      <point x="59" y="131" type="line"/>
      <point x="501" y="131" type="line"/>
      <point x="501" y="17" type="line"/>
    </contour>
  </outline>
</glyph>
<glyph name="commaaccentcomb" format="2">
  <advance width="249"/>
  <outline>
    <contour>
      <point x="59" y="593" type="line"/>
      <point x="138" y="723" type="line"/>
      <point x="225" y="723" type="line"/>
      <point x="193" y="593" type="line"/>
    </contour>
  </outline>
</glyph>
<glyph name="guillemetleft" format="2">
  <advance width="466"/>
  <outline>
    <contour>
      <point x="366" y="604" type="line"/>
      <point x="308" y="439" type="line"/>
      <point x="170" y="350" type="line"/>
      <point x="268" y="235" type="line"/>
      <point x="243" y="94" type="line"/>
      <point x="62" y="301" type="line"/>
      <point x="87" y="413" type="line"/>
    </contour>
    <contour>
      <point x="598" y="604" type="line"/>
      <point x="540" y="439" type="line"/>
      <point x="402" y="350" type="line"/>
      <point x="500" y="235" type="line"/>
      <point x="475" y="94" type="line"/>
      <point x="294" y="301" type="line"/>
      <point x="319" y="413" type="line"/>
    </contour>
  </outline>
</glyph>
<glyph name="guillemetright" format="2">
  <advance width="455"/>
  <outline>
    <contour>
      <point x="234" y="94" type="line"/>
      <point x="292" y="259" type="line"/>
      <point x="430" y="348" type="line"/>
      <point x="332" y="463" type="line"/>
      <point x="357" y="604" type="line"/>
      <point x="538" y="397" type="line"/>
      <point x="513" y="285" type="line"/>
    </contour>
    <contour>
      <point x="2" y="94" type="line"/>
      <point x="60" y="259" type="line"/>
      <point x="198" y="348" type="line"/>
      <point x="100" y="463" type="line"/>
      <point x="125" y="604" type="line"/>
      <point x="306" y="397" type="line"/>
      <point x="281" y="285" type="line"/>
    </contour>
  </outline>
</glyph>
<glyph name="periodcentered.loclCAT" format="2">
  <advance width="401"/>
  <outline>
    <contour>
      <point x="261" y="537" type="line"/>
      <point x="287" y="657" type="line"/>
      <point x="406" y="657" type="line"/>
      <point x="380" y="537" type="line"/>
    </contour>
  </outline>
</glyph>
